<svg width="18" height="18" viewBox="0 0 18 18" fill="none" xmlns="http://www.w3.org/2000/svg">
<path fill-rule="evenodd" clip-rule="evenodd" d="M1.57683 15C1.25826 15 1 14.7417 1 14.4232V4.03561C1 3.46369 1.48384 3 2.08061 3H16.4472C16.7525 3 17 3.24749 17 3.55279V3.55279C17 3.85808 16.7525 4.10557 16.4472 4.10557H2.15367V14.4232C2.15367 14.7417 1.89541 15 1.57683 15V15ZM4.03722 6.31093C4.25963 6.11181 4.59849 6.11979 4.81128 6.32915L8.58959 10.0464C8.87223 10.3365 9.34567 10.3552 9.65227 10.0884C9.65227 10.0884 13.2709 7.0059 14.2782 6.17814C15.2854 5.35037 16.9999 5.58221 16.9999 6.81513V12.6717C16.9999 13.9576 15.9123 15 14.5705 15H4.55649C4.25121 15 4.00373 14.7525 4.00373 14.4472V14.4472C4.00373 14.142 4.25121 13.8945 4.55649 13.8945H14.55C15.2659 13.8945 15.8463 13.3382 15.8463 12.652V7.05885C15.8463 6.6445 15.5462 6.6875 15.3575 6.84973L9.97964 11.2979C9.44566 11.7569 8.62661 11.7216 8.13779 11.2185L4.01635 7.13421C3.78501 6.90495 3.79456 6.52818 4.03722 6.31093V6.31093Z" fill="#CC262D"/>
</svg>
