<svg width="18" height="18" viewBox="0 0 18 18" fill="none" xmlns="http://www.w3.org/2000/svg">
<path d="M13.1429 1H5.14286C4.83975 1 4.54906 1.12041 4.33474 1.33474C4.12041 1.54906 4 1.83975 4 2.14286V15.8571C4 16.1602 4.12041 16.4509 4.33474 16.6653C4.54906 16.8796 4.83975 17 5.14286 17H13.1429C13.446 17 13.7367 16.8796 13.951 16.6653C14.1653 16.4509 14.2857 16.1602 14.2857 15.8571V2.14286C14.2857 1.83975 14.1653 1.54906 13.951 1.33474C13.7367 1.12041 13.446 1 13.1429 1ZM5.14286 2.14286H13.1429V12.4286H5.14286V2.14286ZM5.14286 15.8571V13.5714H13.1429V15.8571H5.14286Z" fill="#CC262D"/>
<path d="M8.57143 14.1429H9.71429V15.2857H8.57143V14.1429Z" fill="#CC262D"/>
<path d="M8.57031 14.1426H9.71317V15.2854H8.57031V14.1426Z" fill="#CC262D"/>
</svg>
