<svg width="18" height="18" viewBox="0 0 18 18" fill="none" xmlns="http://www.w3.org/2000/svg">
<path d="M16.8843 8.6454L9.35632 1.1454C9.26229 1.05227 9.1351 1 9.00251 1C8.86992 1 8.74272 1.05227 8.64869 1.1454L1.12068 8.6454C1.03846 8.74105 0.995496 8.86408 1.00037 8.98992C1.00525 9.11576 1.05761 9.23513 1.14699 9.32418C1.23637 9.41323 1.35619 9.46539 1.4825 9.47025C1.60881 9.47511 1.7323 9.43231 1.82831 9.3504L9 2.2054L16.1717 9.3554C16.2677 9.43731 16.3912 9.48011 16.5175 9.47525C16.6438 9.47039 16.7636 9.41823 16.853 9.32918C16.9424 9.24013 16.9947 9.12076 16.9996 8.99492C17.0045 8.86909 16.9615 8.74605 16.8793 8.6504L16.8843 8.6454Z" fill="#CC262D"/>
<path d="M14.0187 16.0004H11.5093V11.0004H6.49066V16.0004H3.98132V9.0004L2.97759 10.0004V16.0004C2.97759 16.2656 3.08334 16.52 3.27158 16.7075C3.45981 16.895 3.71512 17.0004 3.98132 17.0004H7.4944V12.0004H10.5056V17.0004H14.0187C14.2849 17.0004 14.5402 16.895 14.7284 16.7075C14.9167 16.52 15.0224 16.2656 15.0224 16.0004V9.8804L14.0187 8.8804V16.0004Z" fill="#CC262D"/>
</svg>
