<svg width="20" height="28" viewBox="0 0 20 28" fill="none" xmlns="http://www.w3.org/2000/svg">
<g clip-path="url(#clip0)">
<path d="M10.0017 0C9.25914 0.843956 8.60676 1.63209 8.08986 2.50521C6.6461 4.9413 6.16128 7.58347 6.96915 9.72329C8.57286 14.2504 9.19173 15.4002 9.19173 19.0051H8.05219C7.9808 15.0395 6.51244 12.3821 4.3322 11.5854C3.37281 11.2081 2.13025 11.3968 0.988917 12.5932C-0.422909 14.0742 -0.839743 18.1532 3.30567 18.9379C2.86679 18.2729 2.90822 16.8218 3.78597 16.3079C4.4568 15.9659 5.21168 16.1001 5.56592 16.3943C6.13673 16.7458 6.68662 17.8667 6.68662 19.0051H4.71833V21.2415H8.8056C8.75199 22.394 8.13535 23.3192 6.98799 23.8331C7.13559 24.3188 7.8273 25.3014 8.77735 25.2345C8.96501 26.2817 9.14679 26.8744 10.0017 27.8261C10.8559 26.8747 11.0289 26.282 11.2165 25.2345C12.1666 25.3017 12.8583 24.3188 13.0059 23.8331C11.8588 23.3192 11.2419 22.394 11.1883 21.2415H15.2756V19.0051H13.3073C13.3073 17.8667 13.8578 16.7458 14.428 16.3943C14.7822 16.1001 15.5365 15.9659 16.2079 16.3079C17.0851 16.8218 17.1271 18.2729 16.6882 18.9379C20.8336 18.1532 20.4265 14.0742 19.0144 12.5932C17.8737 11.3965 16.6214 11.2081 15.6617 11.5854C13.4817 12.3824 12.0222 15.0395 11.9511 19.0051H10.8022C10.8022 15.4002 11.4204 14.2507 13.0247 9.72329C13.8317 7.58347 13.3478 4.9413 11.904 2.50521C11.3868 1.63209 10.7436 0.844264 10.0017 0Z" fill="white"/>
</g>
<defs>
<clipPath id="clip0">
<rect width="20" height="27.8261" fill="white"/>
</clipPath>
</defs>
</svg>
