<svg width="97" height="97" viewBox="0 0 97 97" fill="none" xmlns="http://www.w3.org/2000/svg">
<path fill-rule="evenodd" clip-rule="evenodd" d="M74.8233 84.5287V83.024L75.636 82.1081L77.0199 84.5292H78.3509L76.2937 81.381L78.0922 79.358H76.8457L74.8575 81.779H74.8233V77.2832H73.7856V84.5287H74.8233V84.5287ZM72.1778 82.9893C72.1778 82.0387 71.6942 81.5199 70.6742 81.4333L69.8091 81.3805C69.3597 81.3462 69.1172 81.1731 69.1172 80.8979C69.1172 80.4822 69.4453 80.2915 70.0507 80.2915C70.4839 80.2915 70.9333 80.4646 71.4003 80.7761L72.057 79.9976C71.4869 79.5306 70.8297 79.3057 70.0512 79.3057C69.4634 79.3057 69.015 79.4441 68.6683 79.7037C68.2879 79.9976 68.0805 80.3957 68.0805 80.8979C68.0805 81.3291 68.236 81.6754 68.5128 81.935C68.7725 82.1947 69.1519 82.3331 69.5842 82.3673L70.5011 82.4186C70.9333 82.4538 71.1407 82.6436 71.1407 82.9732C71.1407 83.4044 70.7944 83.5952 70.1035 83.5952C69.4981 83.5952 68.9436 83.4044 68.4947 82.9732L67.7685 83.6641C68.4252 84.2705 69.1856 84.581 70.0507 84.581C70.656 84.581 71.1749 84.4426 71.5729 84.1829C71.97 83.8885 72.1778 83.4915 72.1778 82.9893V82.9893ZM66.4199 84.5287V81C66.4199 79.8768 65.6937 79.3057 64.2585 79.3057C63.479 79.3057 62.8913 79.5653 62.5284 80.0499L63.3235 80.6553C63.4966 80.3957 63.8257 80.2915 64.3093 80.2915C64.6898 80.2915 64.9671 80.3438 65.1221 80.4299C65.2952 80.5164 65.3817 80.6895 65.3817 80.9487V81.5012H63.9289C63.4111 81.5012 62.9773 81.6416 62.6668 81.9345C62.3719 82.2108 62.2345 82.5912 62.2345 83.0235C62.2345 83.4558 62.4077 83.8362 62.7191 84.1125C63.0483 84.4416 63.4966 84.5805 64.0844 84.5805C64.7074 84.5805 65.1402 84.4074 65.3475 84.0617H65.3817V84.5287H66.4199V84.5287ZM65.3822 82.713C65.3822 83.0758 65.2957 83.335 65.1226 83.4563C64.9671 83.5428 64.6903 83.5947 64.1891 83.5947C63.5324 83.5947 63.2209 83.4039 63.2209 82.9727C63.2209 82.5404 63.5324 82.3331 64.1377 82.3331H65.3822V82.713V82.713ZM59.5549 83.1448V80.1707H60.3333V79.358H59.5549V77.7844H58.5172V79.358H58.0336V80.1707H58.5172V83.2489C58.5172 83.6294 58.638 83.9409 58.8976 84.1824C59.1216 84.4074 59.4165 84.5287 59.7803 84.5287H60.3339V83.5428H59.9358C59.6756 83.5428 59.5549 83.4039 59.5549 83.1448V83.1448ZM50.3896 84.5287V81.4338C50.3896 81.1223 50.4761 80.8284 50.6835 80.6377C50.8742 80.4304 51.1157 80.3438 51.4267 80.3438C51.7216 80.3438 51.9456 80.4304 52.1539 80.6377C52.3446 80.8284 52.4302 81.1223 52.4302 81.4338V84.5287H53.4678V81.0876C53.4678 80.5512 53.2947 80.1194 52.9314 79.7727C52.6033 79.4446 52.2062 79.3057 51.7382 79.3057C51.0815 79.3057 50.5285 79.5306 50.1304 79.9634C49.6982 79.5311 49.2146 79.3057 48.661 79.3057C48.1069 79.3057 47.6576 79.514 47.3124 79.911V79.3575H46.2742V84.5281H47.3124V81.4333C47.3124 81.1218 47.3979 80.8279 47.5886 80.6372C47.796 80.4299 48.0214 80.3433 48.349 80.3433C48.6263 80.3433 48.8683 80.4299 49.0591 80.6372C49.2664 80.8279 49.3519 81.1218 49.3519 81.4333V84.5281H50.3896V84.5287V84.5287ZM44.3891 83.1966L44.5451 81.9345L44.3891 80.689C44.3025 80.4294 44.1642 80.1702 43.9568 79.9629C43.5935 79.5306 43.0747 79.3052 42.4004 79.3052C41.7431 79.3052 41.2243 79.5301 40.8439 79.9629C40.6516 80.1727 40.5046 80.4199 40.4121 80.689L40.2732 81.9345L40.4121 83.1966C40.4987 83.4563 40.6537 83.6812 40.8439 83.9228C41.2243 84.355 41.7436 84.5805 42.4004 84.5805C43.0747 84.5805 43.5935 84.3555 43.9568 83.9228C44.1642 83.6812 44.3025 83.4563 44.3891 83.1966ZM41.57 83.1624C41.3979 82.9027 41.3109 82.5047 41.3109 81.935C41.3109 81.3462 41.3979 80.9492 41.57 80.7243C41.7436 80.4646 42.0375 80.3438 42.4004 80.3438C42.7813 80.3438 43.0747 80.4646 43.2478 80.7243C43.4209 80.9492 43.5075 81.3462 43.5075 81.935C43.5075 82.5052 43.4214 82.9032 43.2478 83.1624C43.0747 83.4221 42.7813 83.5428 42.4004 83.5428C42.0375 83.5428 41.7436 83.4216 41.57 83.1624ZM37.7656 83.9751V84.5287H38.8038V77.2832H37.7656V79.9116C37.3339 79.5145 36.9011 79.3062 36.4346 79.3062C35.8287 79.3062 35.3793 79.5311 35.0507 79.9639C34.9128 80.1712 34.7911 80.3785 34.7392 80.6382L34.6869 81.9355L34.7392 83.2494C34.7911 83.5091 34.9123 83.7164 35.0507 83.9238C35.3793 84.356 35.8287 84.5815 36.4346 84.5815C36.9534 84.5805 37.3852 84.3721 37.7656 83.9751V83.9751ZM36.7632 83.5428C36.3309 83.5428 36.0023 83.3697 35.8639 83.024L35.7256 81.935L35.8639 80.8284C36.0023 80.5169 36.3309 80.3438 36.7632 80.3438C37.195 80.3438 37.4717 80.5169 37.6277 80.8627C37.7143 81.0876 37.7656 81.4338 37.7656 81.935L37.6277 83.024C37.4717 83.3697 37.195 83.5428 36.7632 83.5428ZM29.6737 81.4333C29.6737 81.1218 29.7598 80.8279 29.9495 80.6372C30.1578 80.4299 30.3823 80.3433 30.7109 80.3433C31.0219 80.3433 31.2473 80.4299 31.4204 80.6372C31.6278 80.8279 31.7138 81.1218 31.7138 81.4333V84.5281H32.7515V81.0871C32.7515 80.5507 32.5431 80.1189 32.1808 79.7722C31.8522 79.4441 31.4889 79.3052 31.0214 79.3052C30.4683 79.3052 30.019 79.5135 29.6909 79.9105H29.6732V79.357H28.6351V84.5276H29.6732V81.4333H29.6737V81.4333ZM25.6615 82.713C25.6615 83.0758 25.5755 83.335 25.4024 83.4563C25.264 83.5428 24.9701 83.5947 24.5031 83.5947C23.8459 83.5947 23.5354 83.4039 23.5354 82.9727C23.5354 82.5404 23.8117 82.3331 24.416 82.3331H25.6615V82.713V82.713ZM24.2263 81.5012C23.7075 81.5012 23.2933 81.6416 22.9818 81.9345C22.6874 82.2108 22.5491 82.5912 22.5491 83.0235C22.5491 83.4558 22.7227 83.8362 23.0342 84.1125C23.3623 84.4416 23.8117 84.5805 24.3999 84.5805C25.0224 84.5805 25.4547 84.4074 25.662 84.0617V84.5287H26.6997V81C26.6997 79.8768 25.9735 79.3057 24.573 79.3057C23.7598 79.3057 23.1892 79.5653 22.8087 80.0499L23.6385 80.6553C23.794 80.3957 24.1398 80.2915 24.6249 80.2915C25.0048 80.2915 25.2645 80.3438 25.4371 80.4299C25.576 80.5164 25.662 80.6895 25.662 80.9487V81.5012H24.2263ZM19.4361 81.4157C19.4361 81.0695 19.5569 80.7761 19.7476 80.5683C19.9627 80.4244 20.215 80.3463 20.4737 80.3433C20.6816 80.3433 20.9065 80.4299 21.1657 80.5683L21.8913 79.6856C21.5632 79.4269 21.1999 79.3052 20.8195 79.3052C20.2488 79.3052 19.7818 79.5135 19.4708 79.9105H19.4361V79.357H18.3984V84.5276H19.4361V81.4157V81.4157Z" fill="white"/>
<path fill-rule="evenodd" clip-rule="evenodd" d="M45.7517 59.3708H32.0156V45.3242C35.7677 45.3771 38.9748 46.7569 41.6368 49.4386C44.3734 52.1334 45.7522 55.4155 45.7522 59.2415V59.3708H45.7517V59.3708Z" fill="#BA307B"/>
<path fill-rule="evenodd" clip-rule="evenodd" d="M32.0135 45.3242H31.8323C28.0053 45.3242 24.7021 46.7031 21.9771 49.4386C19.2713 52.1334 17.9141 55.4154 17.9141 59.2415C17.9141 63.0685 19.2713 66.3722 21.9771 69.0987C24.7021 71.8035 28.0053 73.1597 31.8323 73.1597C35.6589 73.1597 38.9409 71.8035 41.6347 69.0987C44.3184 66.4044 45.6967 63.1651 45.7501 59.3703H32.0135V45.3242ZM50.9982 59.3174V59.4875C50.9982 63.3256 52.3781 66.6183 55.1146 69.3437C57.8089 72.0486 61.0904 73.4068 64.9175 73.4068C68.744 73.4068 72.0472 72.0486 74.7737 69.3437C77.4775 66.6183 78.8347 63.3256 78.8347 59.4875C78.8347 55.661 77.4775 52.3795 74.7737 49.6963C72.0794 47.0025 68.8401 45.6337 65.0453 45.5809V59.3174H50.9982V59.3174Z" fill="#CC262D"/>
<path fill-rule="evenodd" clip-rule="evenodd" d="M65.0471 45.5801V59.3166H51C51.0538 55.553 52.4332 52.346 55.1164 49.6955C57.8107 46.9484 61.0922 45.5801 64.9193 45.5801H65.0471V45.5801Z" fill="#BA307B"/>
<path fill-rule="evenodd" clip-rule="evenodd" d="M64.9944 40.7483H65.1655C69.0036 40.7483 72.2962 39.3805 75.0207 36.6329C77.7265 33.9396 79.0837 30.6681 79.0837 26.8305C79.0837 23.0035 77.7265 19.7114 75.0207 16.9849C72.2962 14.27 69.0036 12.9229 65.1655 12.9229C61.3389 12.9229 58.0574 14.27 55.3742 16.9849C52.6799 19.6686 51.3122 22.9179 51.2578 26.7133H64.9944V40.7483V40.7483Z" fill="#CC262D"/>
<path fill-rule="evenodd" clip-rule="evenodd" d="M51.2578 26.7129H64.9944V40.7484C61.2318 40.6956 58.0257 39.3268 55.3742 36.633C52.6271 33.9397 51.2578 30.6683 51.2578 26.8306V26.7129Z" fill="#BA307B"/>
<path fill-rule="evenodd" clip-rule="evenodd" d="M45.9973 26.5097V26.3392C45.9973 22.501 44.629 19.2089 41.8814 16.4829C39.1871 13.7781 35.9167 12.4209 32.0786 12.4209C28.252 12.4209 24.9599 13.7781 22.2339 16.4829C19.5185 19.2089 18.1719 22.501 18.1719 26.3392C18.1719 30.1657 19.519 33.4472 22.2339 36.1309C24.9171 38.8247 28.1665 40.193 31.9618 40.2463V26.5097H45.9973V26.5097Z" fill="#CC262D"/>
<path fill-rule="evenodd" clip-rule="evenodd" d="M31.9609 40.2459V26.5098H45.9969C45.9431 30.2724 44.5748 33.4795 41.881 36.131C39.1868 38.8781 35.9163 40.2464 32.0782 40.2464H31.9609V40.2459Z" fill="#BA307B"/>
</svg>
